<svg version="1.1" xmlns="http://www.w3.org/2000/svg" xmlns:xlink="http://www.w3.org/1999/xlink" width="1149" height="474" viewBox="0 0 1149 474"><defs/><g transform="matrix(1,0,0,1,0,0)"><g><g><g><path fill="none" stroke="#d3d3d3" paint-order="fill stroke markers" d=" M 0 0 L 1200 0" stroke-miterlimit="10" stroke-opacity="0.8" stroke-dasharray="5"/></g><g><path fill="none" stroke="#d3d3d3" paint-order="fill stroke markers" d=" M 0 0 L 0 800" stroke-miterlimit="10" stroke-opacity="0.8" stroke-dasharray="5"/></g></g><g id="_5EB25193-564D-4464-ABD3-A42E13FA8551" transform="matrix(1,0,0,1,963,359)"><g><path fill="none" stroke="none"/></g><g transform="matrix(1.2523364485981308,0,0,1.0701754385964912,0,0)"><g transform="matrix(1,0,0,1,0,0)"><path fill="none" stroke="#000000" id="_5EB25193-564D-4464-ABD3-A42E13FA8551?shapeType=BORDER&amp;renderType=STROKE" paint-order="fill stroke markers" d=" M 0 0 M 1.5 30 C 1.5 14.3 14.3 1.5 30 1.5 L 80 1.5 C 95.7 1.5 108.5 14.3 108.5 30 C 108.5 45.7 95.7 58.5 80 58.5 L 30 58.5 C 14.3 58.5 1.5 45.7 1.5 30 Z" stroke-miterlimit="10" stroke-width="1.5" stroke-dasharray=""/></g></g><g transform="matrix(1,0,0,1,29.431312561035156,24)"><text fill="#000000" stroke="none" font-family="Open Sans" font-size="10pt" font-style="normal" font-weight="normal" text-decoration="normal" x="37.568687438964844" y="10.4" text-anchor="middle" dominant-baseline="alphabetic">Credit Score</text></g></g><g transform="matrix(1,0,0,1,963,359)"/><g id="_2CD06151-9B65-4D7F-A0D7-BF99C72F6AE9" transform="matrix(1,0,0,1,99.09345794392524,223.67105263157896)"><g><path fill="none" stroke="none"/></g><g transform="matrix(1.2710280373831775,0,0,1.105263157894737,0,0)"><g transform="matrix(1,0,0,1,0,0)"><path fill="none" stroke="#000000" id="_2CD06151-9B65-4D7F-A0D7-BF99C72F6AE9?shapeType=BORDER&amp;renderType=STROKE" paint-order="fill stroke markers" d=" M 0 0 M 16.5 1.5 L 108.5 1.5 L 108.5 43.5 L 93.5 58.5 L 1.5 58.5 L 1.5 16.5 L 16.5 1.5 Z" stroke-miterlimit="10" stroke-width="1.5" stroke-dasharray=""/></g></g><g transform="matrix(1,0,0,1,8.747314453125,18.5)"><text fill="#000000" stroke="none" font-family="Open Sans" font-size="10pt" font-style="normal" font-weight="normal" text-decoration="normal" x="59.252685546875" y="10.4" text-anchor="middle" dominant-baseline="alphabetic">Lender Acceptable </text><text fill="#000000" stroke="none" font-family="Open Sans" font-size="10pt" font-style="normal" font-weight="normal" text-decoration="normal" x="59.252685546875" y="23.400000000000002" text-anchor="middle" dominant-baseline="alphabetic">              DTI              </text></g></g><g transform="matrix(1,0,0,1,99.09345794392524,223.67105263157896)"/><g id="_6C7703B0-705E-4485-8E9D-504811F2F15B" transform="matrix(1,0,0,1,531,225)"><g><path fill="none" stroke="none"/></g><g transform="matrix(1,0,0,1,0,0)"><path fill="none" stroke="#000000" id="_6C7703B0-705E-4485-8E9D-504811F2F15B?shapeType=BORDER&amp;renderType=STROKE" paint-order="fill stroke markers" d=" M 0 0 L 136 0 L 136 62 L 0 62 L 0 0 Z Z" stroke-miterlimit="10" stroke-width="1.5" stroke-dasharray=""/></g><g transform="matrix(1,0,0,1,20.26788330078125,24.5)"><text fill="#000000" stroke="none" font-family="Open Sans" font-size="10pt" font-style="normal" font-weight="normal" text-decoration="normal" x="47.73211669921875" y="10.4" text-anchor="middle" dominant-baseline="alphabetic">Front End Ratio</text></g></g><g transform="matrix(1,0,0,1,531,225)"/><g id="_5FE858A6-1DE9-4480-8050-7990DA70F6D0" transform="matrix(1,0,0,1,747,359.3421052631579)"><g><path fill="none" stroke="none"/></g><g transform="matrix(1.2616822429906542,0,0,1.105263157894737,0,0)"><g transform="matrix(1,0,0,1,0,0)"><path fill="none" stroke="#000000" id="_5FE858A6-1DE9-4480-8050-7990DA70F6D0?shapeType=BORDER&amp;renderType=STROKE" paint-order="fill stroke markers" d=" M 0 0 M 16.5 1.5 L 108.5 1.5 L 108.5 43.5 L 93.5 58.5 L 1.5 58.5 L 1.5 16.5 L 16.5 1.5 Z" stroke-miterlimit="10" stroke-width="1.5" stroke-dasharray=""/></g></g><g transform="matrix(1,0,0,1,56.08360290527344,25)"><text fill="#000000" stroke="none" font-family="Open Sans" font-size="10pt" font-style="normal" font-weight="normal" text-decoration="normal" x="11.416397094726562" y="10.4" text-anchor="middle" dominant-baseline="alphabetic">PITI</text></g></g><g transform="matrix(1,0,0,1,747,359.3421052631579)"/><g id="_6790BD8F-B46B-4D13-942E-3A3CF7BB5FBD" transform="matrix(1,0,0,1,316.0607476635514,361)"><g><path fill="none" stroke="none"/></g><g transform="matrix(1.2523364485981308,0,0,1.0701754385964912,0,0)"><g transform="matrix(1,0,0,1,0,0)"><path fill="none" stroke="#000000" id="_6790BD8F-B46B-4D13-942E-3A3CF7BB5FBD?shapeType=BORDER&amp;renderType=STROKE" paint-order="fill stroke markers" d=" M 0 0 M 1.5 30 C 1.5 14.3 14.3 1.5 30 1.5 L 80 1.5 C 95.7 1.5 108.5 14.3 108.5 30 C 108.5 45.7 95.7 58.5 80 58.5 L 30 58.5 C 14.3 58.5 1.5 45.7 1.5 30 Z" stroke-miterlimit="10" stroke-width="1.5" stroke-dasharray=""/></g></g><g transform="matrix(1,0,0,1,21.562210083007812,24)"><text fill="#000000" stroke="none" font-family="Open Sans" font-size="10pt" font-style="normal" font-weight="normal" text-decoration="normal" x="45.43778991699219" y="10.4" text-anchor="middle" dominant-baseline="alphabetic">Applicant Data</text></g></g><g transform="matrix(1,0,0,1,316.0607476635514,361)"/><g id="_519D5F9A-543E-4EE7-BFA9-92F58C36F656" transform="matrix(1,0,0,1,315,225)"><g><path fill="none" stroke="none"/></g><g transform="matrix(1,0,0,1,0,0)"><path fill="none" stroke="#000000" id="_519D5F9A-543E-4EE7-BFA9-92F58C36F656?shapeType=BORDER&amp;renderType=STROKE" paint-order="fill stroke markers" d=" M 0 0 L 136 0 L 136 62 L 0 62 L 0 0 Z Z" stroke-miterlimit="10" stroke-width="1.5" stroke-dasharray=""/></g><g transform="matrix(1,0,0,1,22.067543029785156,24.5)"><text fill="#000000" stroke="none" font-family="Open Sans" font-size="10pt" font-style="normal" font-weight="normal" text-decoration="normal" x="45.932456970214844" y="10.4" text-anchor="middle" dominant-baseline="alphabetic">Back End Ratio</text></g></g><g transform="matrix(1,0,0,1,315,225)"/><g id="_7FFE9687-E1D1-443B-8478-874DADECBDC1" transform="matrix(1,0,0,1,963,225)"><g><path fill="none" stroke="none"/></g><g transform="matrix(1,0,0,1,0,0)"><path fill="none" stroke="#000000" id="_7FFE9687-E1D1-443B-8478-874DADECBDC1?shapeType=BORDER&amp;renderType=STROKE" paint-order="fill stroke markers" d=" M 0 0 L 136 0 L 136 62 L 0 62 L 0 0 Z Z" stroke-miterlimit="10" stroke-width="1.5" stroke-dasharray=""/></g><g transform="matrix(1,0,0,1,9.09228515625,24.5)"><text fill="#000000" stroke="none" font-family="Open Sans" font-size="10pt" font-style="normal" font-weight="normal" text-decoration="normal" x="58.90771484375" y="10.4" text-anchor="middle" dominant-baseline="alphabetic">Credit Score Rating</text></g></g><g transform="matrix(1,0,0,1,963,225)"/><g id="_4E4095A4-5374-4727-9070-26E054645B5F" transform="matrix(1,0,0,1,531.1214953271028,360)"><g><path fill="none" stroke="none"/></g><g transform="matrix(1.2523364485981308,0,0,1.0701754385964912,0,0)"><g transform="matrix(1,0,0,1,0,0)"><path fill="none" stroke="#000000" id="_4E4095A4-5374-4727-9070-26E054645B5F?shapeType=BORDER&amp;renderType=STROKE" paint-order="fill stroke markers" d=" M 0 0 M 1.5 30 C 1.5 14.3 14.3 1.5 30 1.5 L 80 1.5 C 95.7 1.5 108.5 14.3 108.5 30 C 108.5 45.7 95.7 58.5 80 58.5 L 30 58.5 C 14.3 58.5 1.5 45.7 1.5 30 Z" stroke-miterlimit="10" stroke-width="1.5" stroke-dasharray=""/></g></g><g transform="matrix(1,0,0,1,7.812408447265625,24)"><text fill="#000000" stroke="none" font-family="Open Sans" font-size="10pt" font-style="normal" font-weight="normal" text-decoration="normal" x="59.187591552734375" y="10.4" text-anchor="middle" dominant-baseline="alphabetic">Requested Product</text></g></g><g transform="matrix(1,0,0,1,531.1214953271028,360)"/><g id="_2DC4CE76-599C-4783-85D4-CA8E9DB0071D" transform="matrix(1,0,0,1,99.09345794392524,359)"><g><path fill="none" stroke="none"/></g><g transform="matrix(1.2710280373831775,0,0,1.105263157894737,0,0)"><g transform="matrix(1,0,0,1,0,0)"><path fill="none" stroke="#000000" id="_2DC4CE76-599C-4783-85D4-CA8E9DB0071D?shapeType=BORDER&amp;renderType=STROKE" paint-order="fill stroke markers" d=" M 0 0 M 16.5 1.5 L 108.5 1.5 L 108.5 43.5 L 93.5 58.5 L 1.5 58.5 L 1.5 16.5 L 16.5 1.5 Z" stroke-miterlimit="10" stroke-width="1.5" stroke-dasharray=""/></g></g><g transform="matrix(1,0,0,1,57.79423522949219,25)"><text fill="#000000" stroke="none" font-family="Open Sans" font-size="10pt" font-style="normal" font-weight="normal" text-decoration="normal" x="10.205764770507812" y="10.4" text-anchor="middle" dominant-baseline="alphabetic">DTI</text></g></g><g transform="matrix(1,0,0,1,99.09345794392524,359)"/><g id="_DF3B0C46-46D0-4327-88F5-285D2E29AED0" transform="matrix(1,0,0,1,747,224.64473684210526)"><g><path fill="none" stroke="none"/></g><g transform="matrix(1.2523364485981308,0,0,1.1403508771929824,0,0)"><g transform="matrix(1,0,0,1,0,0)"><path fill="none" stroke="#000000" id="_DF3B0C46-46D0-4327-88F5-285D2E29AED0?shapeType=BORDER&amp;renderType=STROKE" paint-order="fill stroke markers" d=" M 0 0 M 16.5 1.5 L 108.5 1.5 L 108.5 43.5 L 93.5 58.5 L 1.5 58.5 L 1.5 16.5 L 16.5 1.5 Z" stroke-miterlimit="10" stroke-width="1.5" stroke-dasharray=""/></g></g><g transform="matrix(1,0,0,1,7.747314453125,19.5)"><text fill="#000000" stroke="none" font-family="Open Sans" font-size="10pt" font-style="normal" font-weight="normal" text-decoration="normal" x="59.252685546875" y="10.4" text-anchor="middle" dominant-baseline="alphabetic">Lender Acceptable </text><text fill="#000000" stroke="none" font-family="Open Sans" font-size="10pt" font-style="normal" font-weight="normal" text-decoration="normal" x="59.252685546875" y="23.400000000000002" text-anchor="middle" dominant-baseline="alphabetic">              PITI              </text></g></g><g transform="matrix(1,0,0,1,747,224.64473684210526)"/><g id="_1608585F-01C8-4A66-B3E5-F4422D4DD2CA#_31A1B6B2-A2A6-4E03-B898-26573A5CF3BA"><g><path fill="none" stroke="#000000" paint-order="fill stroke markers" d=" M 1030.2975609756097 359 L 1030.8536655005837 301.99928619015856" stroke-miterlimit="10" stroke-dasharray=""/></g><g transform="matrix(1,0,0,1,1030.2975609756097,359)"/><g transform="matrix(0.9999524126772358,0.009755633294419887,-0.009755633294419887,0.9999524126772358,1026.0002379366138,286.9512218335279)"><path fill="#000000" stroke="#000000" paint-order="fill stroke markers" d=" M 10 15 L 0 15 L 5 0 Z" stroke-miterlimit="10" stroke-dasharray=""/></g><g transform="matrix(1,0,0,1,1040.2970851023817,322.9024436670559)"/></g><g id="_1608585F-01C8-4A66-B3E5-F4422D4DD2CA#_4D441C11-7042-49CF-A42C-17A4348A7F29"><g><path fill="none" stroke="#000000" paint-order="fill stroke markers" d=" M 235.09345794392524 255.55216100088464 L 305.00015705035423 255.94395553176687" stroke-miterlimit="10" stroke-dasharray="4,4"/></g><g transform="matrix(1,0,0,1,235.09345794392524,255.55216100088464)"/><g transform="matrix(-0.005604446823312543,0.9999842949645783,-0.9999842949645783,-0.005604446823312543,315.0280222341166,251.00007852517712)"><path fill="none" stroke="#000000" paint-order="fill stroke markers" d=" M 0 10 L 5 0 L 10 10" stroke-miterlimit="10" stroke-dasharray=""/></g><g transform="matrix(1,0,0,1,235.1495024121584,245.77623755079654)"/></g><g id="_1608585F-01C8-4A66-B3E5-F4422D4DD2CA#_63DE7C3B-A767-4B8A-A098-91ECB4B8D330"><g><path fill="none" stroke="#000000" paint-order="fill stroke markers" d=" M 814.5 359.3421052631579 L 608.480097153641 290.1824138570472" stroke-miterlimit="10" stroke-dasharray="4,4"/></g><g transform="matrix(1,0,0,1,814.5,359.3421052631579)"/><g transform="matrix(0.3182413857047219,-0.9480097153641087,0.9480097153641087,0.3182413857047219,597.4087930714763,291.7400485768205)"><path fill="none" stroke="#000000" paint-order="fill stroke markers" d=" M 0 10 L 5 0 L 10 10" stroke-miterlimit="10" stroke-dasharray=""/></g><g transform="matrix(1,0,0,1,615.1314423206362,313.69095547793785)"/></g><g id="_1608585F-01C8-4A66-B3E5-F4422D4DD2CA#_89EEAF9F-5A5D-4F59-91B7-EA418A7229AF"><g><path fill="none" stroke="#000000" paint-order="fill stroke markers" d=" M 383.0607476635514 361 L 584.8100788530936 291.86272946446536" stroke-miterlimit="10" stroke-dasharray=""/></g><g transform="matrix(1,0,0,1,383.0607476635514,361)"/><g transform="matrix(0.32418196429769025,0.9459947431270911,-0.9459947431270911,0.32418196429769025,597.3790901785115,282.2700262843645)"><path fill="#000000" stroke="#000000" paint-order="fill stroke markers" d=" M 10 15 L 0 15 L 5 0 Z" stroke-miterlimit="10" stroke-dasharray=""/></g><g transform="matrix(1,0,0,1,399.6727191620435,314.5400525687291)"/></g><g id="_1608585F-01C8-4A66-B3E5-F4422D4DD2CA#_77BA409B-E00D-4FBC-B522-8F656D4F6F0E"><g><path fill="none" stroke="#000000" paint-order="fill stroke markers" d=" M 383.04301748423734 361 L 383.008719758845 301.99999746552663" stroke-miterlimit="10" stroke-dasharray=""/></g><g transform="matrix(1,0,0,1,383.04301748423734,361)"/><g transform="matrix(0.9999998310351095,-0.0005813172563346626,0.0005813172563346626,0.9999998310351095,378.00000084482446,287.00290658628165)"><path fill="#000000" stroke="#000000" paint-order="fill stroke markers" d=" M 10 15 L 0 15 L 5 0 Z" stroke-miterlimit="10" stroke-dasharray=""/></g><g transform="matrix(1,0,0,1,392.9999983103511,323.99418682743664)"/></g><g id="_1608585F-01C8-4A66-B3E5-F4422D4DD2CA#_87730C5A-5648-415B-9189-EF4D8805F8C9"><g><path fill="none" stroke="#000000" paint-order="fill stroke markers" d=" M 598.3803783466523 360 L 598.8726850683464 301.999459687208" stroke-miterlimit="10" stroke-dasharray=""/></g><g transform="matrix(1,0,0,1,598.3803783466523,360)"/><g transform="matrix(0.9999639791472003,0.008487662110239061,-0.008487662110239061,0.9999639791472003,594.000180104264,286.9575616894488)"><path fill="#000000" stroke="#000000" paint-order="fill stroke markers" d=" M 10 15 L 0 15 L 5 0 Z" stroke-miterlimit="10" stroke-dasharray=""/></g><g transform="matrix(1,0,0,1,608.3800181381242,323.4151233788976)"/></g><g id="_1608585F-01C8-4A66-B3E5-F4422D4DD2CA#_3217D655-4484-4733-A9AE-4F9CF30D9924"><g><path fill="none" stroke="#000000" paint-order="fill stroke markers" d=" M 167.09345794392524 359 L 373.51357773155587 290.16350952974176" stroke-miterlimit="10" stroke-dasharray="4,4"/></g><g transform="matrix(1,0,0,1,167.09345794392524,359)"/><g transform="matrix(0.31635095297417654,0.9486422268444149,-0.9486422268444149,0.31635095297417654,381.4182452351291,282.25678886577793)"><path fill="none" stroke="#000000" paint-order="fill stroke markers" d=" M 0 10 L 5 0 L 10 10" stroke-miterlimit="10" stroke-dasharray=""/></g><g transform="matrix(1,0,0,1,183.34601581726278,313.51357773155587)"/></g><g id="_1608585F-01C8-4A66-B3E5-F4422D4DD2CA#_2C95829D-FCF9-44F5-8F5A-0A6CDB60600D"><g><path fill="none" stroke="#000000" paint-order="fill stroke markers" d=" M 747 256.6229860365199 L 676.9996968016011 256.0778708934604" stroke-miterlimit="10" stroke-dasharray="4,4"/></g><g transform="matrix(1,0,0,1,747,256.6229860365199)"/><g transform="matrix(0.007787089346038496,-0.999969680160112,0.999969680160112,0.007787089346038496,666.9610645532698,260.99984840080054)"><path fill="none" stroke="#000000" paint-order="fill stroke markers" d=" M 0 10 L 5 0 L 10 10" stroke-miterlimit="10" stroke-dasharray=""/></g><g transform="matrix(1,0,0,1,667.0778708934604,246.31179621665885)"/></g><g id="_51A07257-BA1D-4B19-819C-760DB9FB7E7B" transform="matrix(1,0,0,1,532,89)"><g><path fill="none" stroke="none"/></g><g transform="matrix(1,0,0,1,0,0)"><path fill="none" stroke="#000000" id="_51A07257-BA1D-4B19-819C-760DB9FB7E7B?shapeType=BORDER&amp;renderType=STROKE" paint-order="fill stroke markers" d=" M 0 0 L 136 0 L 136 62 L 0 62 L 0 0 Z Z" stroke-miterlimit="10" stroke-width="1.5" stroke-dasharray=""/></g><g transform="matrix(1,0,0,1,40.43206024169922,24.5)"><text fill="#000000" stroke="none" font-family="Open Sans" font-size="10pt" font-style="normal" font-weight="normal" text-decoration="normal" x="27.56793975830078" y="10.4" text-anchor="middle" dominant-baseline="alphabetic">Changed</text></g></g><g id="_1608585F-01C8-4A66-B3E5-F4422D4DD2CA#_A3E95B32-2EFD-40AD-B5E4-0A73A1542011"><g><path fill="none" stroke="#000000" paint-order="fill stroke markers" d=" M 447.06666666666666 225 L 586.4976112287673 157.5334139215642" stroke-miterlimit="10" stroke-dasharray=""/></g><g transform="matrix(1,0,0,1,447.06666666666666,225)"/><g transform="matrix(0.4355609281042793,0.9001592514155141,-0.9001592514155141,0.4355609281042793,597.8221953594787,146.49920374292242)"><path fill="#000000" stroke="#000000" paint-order="fill stroke markers" d=" M 10 15 L 0 15 L 5 0 Z" stroke-miterlimit="10" stroke-dasharray=""/></g><g transform="matrix(1,0,0,1,451.4222759477094,178.99840748584487)"/></g><g id="_1608585F-01C8-4A66-B3E5-F4422D4DD2CA#_0B992F01-BA77-4F06-A830-D8948B467272"><g><path fill="none" stroke="#000000" paint-order="fill stroke markers" d=" M 599.2952380952381 225 L 599.8571493354841 165.9993197741647" stroke-miterlimit="10" stroke-dasharray=""/></g><g transform="matrix(1,0,0,1,599.2952380952381,225)"/><g transform="matrix(0.9999546516109782,0.00952337763439255,-0.00952337763439255,0.9999546516109782,595.0002267419451,150.95238311182803)"><path fill="#000000" stroke="#000000" paint-order="fill stroke markers" d=" M 10 15 L 0 15 L 5 0 Z" stroke-miterlimit="10" stroke-dasharray=""/></g><g transform="matrix(1,0,0,1,609.294784611348,187.9047662236561)"/></g><g id="_1608585F-01C8-4A66-B3E5-F4422D4DD2CA#_B6002F33-4888-48C5-B265-636030F8C2DC"><g><path fill="none" stroke="#000000" paint-order="fill stroke markers" d=" M 963 239.4338747099768 L 614.573753854923 154.55045047509725" stroke-miterlimit="10" stroke-dasharray=""/></g><g transform="matrix(1,0,0,1,963,239.4338747099768)"/><g transform="matrix(0.23669669833981638,-0.9715835903281971,0.9715835903281971,0.23669669833981638,598.8165165083009,155.85791795164099)"><path fill="#000000" stroke="#000000" paint-order="fill stroke markers" d=" M 10 15 L 0 15 L 5 0 Z" stroke-miterlimit="10" stroke-dasharray=""/></g><g transform="matrix(1,0,0,1,686.7086079505784,185.50110145170643)"/></g><g transform="matrix(1,0,0,1,532,89)"/></g></g></svg>